# xmcd
#
# Track frame offsets:
#	150
#	12493
#	24432
#	37022
#	47906
#	62168
#	71941
#	85242
#	96686
#	106660
#	117132
#	129942
#	143229
#	156606
#	167622
#	177252
#	187547
#	202119
#	215374
#	228009
#	240704
#
# Disc length: 3387 seconds
#
# Revision: 1
# Processed by: cddbd v1.5.2PL0 Copyright (c) Steve Scherf et al.
# Submitted via: audiograbber 1.83.01
#
DISCID=270d3915
DTITLE=Jaqck Greene - Jack Greene
DYEAR=1900
DGENRE=Chanson
TTITLE0=Ever Since My Baby Went Away
TTITLE1=There Goes My Everything
TTITLE2=What Locks The DEoor
TTITLE3=You Are My Treasure
TTITLE4=Love Takes CDare Of Me
TTITLE5=Statue Of A Fool
TTITLE6=Back To The Arms Of Love
TTITLE7=Wish I Didn't Have To Miss You
TTITLE8=The W@hole World Comes To Me
TTITLE9=If This Is Love
TTITLE10=Something Unseen
TTITLE11=There's A Whole Lot Of About a Woman
TTITLE12=Making Up His Mind
TTITLE13=Much Oblige
TTITLE14=What In The World Has Gone Wrong
TTITLE15=Satisfaction
TTITLE16=I Need Somebody Bad
TTITLE17=It's Time To Cross That Bridge
TTITLE18=He Little Thing'ed her out of his Arms
TTITLE19=Caalifornia Turn Around
TTITLE20=block
EXTD=
EXTT0=
EXTT1=
EXTT2=
EXTT3=
EXTT4=
EXTT5=
EXTT6=
EXTT7=
EXTT8=
EXTT9=
EXTT10=
EXTT11=
EXTT12=
EXTT13=
EXTT14=
EXTT15=
EXTT16=
EXTT17=
EXTT18=
EXTT19=
EXTT20=
PLAYORDER=
